<?xml version="1.0" encoding="utf-8"?>
<!-- Generator: Adobe Illustrator 27.9.0, SVG Export Plug-In . SVG Version: 6.00 Build 0)  -->
<svg version="1.1" id="Ebene_2_00000072248726418223324730000015565755989075582134_"
	 xmlns="http://www.w3.org/2000/svg" xmlns:xlink="http://www.w3.org/1999/xlink" x="0px" y="0px" viewBox="0 0 81 73.3"
	 style="enable-background:new 0 0 81 73.3;" xml:space="preserve">
<style type="text/css">
	.st0{fill:#078AC6;}
	.st1{fill:none;}
</style>
<g id="Ebene_1-2">
	<path class="st0" d="M71.5,33.2c0-0.8-0.6-1.4-1.4-1.4s-1.4,0.6-1.4,1.4c0,8.1-3.5,15.5-9.1,20.5V38.5c0-1.6-1.3-2.9-2.9-2.9h-7
		V13.8c0-1.6-1.3-2.9-2.9-2.9H35.9c-1.6,0-2.9,1.3-2.9,2.9v12.8h-7.8c-1.6,0-2.9,1.3-2.9,2.9v6.3c0,0,0,0,0,0.1s0,0,0,0.1v17.8
		c-5.6-5.1-9.1-12.4-9.1-20.6c0-0.8-0.6-1.4-1.4-1.4s-1.4,0.6-1.4,1.4c0,16.8,13.7,30.5,30.5,30.5c6.7,0,12.9-2.2,17.9-5.8
		c0.1-0.1,0.2-0.1,0.3-0.2C66.6,52.1,71.5,43.2,71.5,33.2L71.5,33.2z M45.7,46.2h11.1v9.7c-3.2,2.3-7,3.9-11.1,4.6V46.2z M56.8,38.5
		v5H45.7v-5c0-0.1,0-0.1,0.1-0.1h10.9C56.7,38.4,56.8,38.4,56.8,38.5z M36,13.6h10.9c0,0,0.1,0,0.1,0.1v5H35.9v-5
		C35.9,13.7,35.9,13.6,36,13.6z M25.2,29.3h10.9c0,0,0.1,0,0.1,0.1v5H25.1v-5C25.1,29.4,25.2,29.3,25.2,29.3z M25.1,37.2h11.1v23.3
		c-4.1-0.7-7.8-2.3-11.1-4.5C25.1,55.9,25.1,37.2,25.1,37.2z M39,60.8V29.4c0-1.6-1.3-2.9-2.9-2.9h-0.2v-5h11.1v14h-1.1
		c-1.6,0-2.9,1.3-2.9,2.9v22.4c-0.7,0-1.3,0.1-2,0.1S39.6,60.9,39,60.8z"/>
	<rect class="st1" width="338.7" height="73.3"/>
</g>
</svg>
