<?xml version="1.0" encoding="utf-8"?>
<!-- Generator: Adobe Illustrator 26.0.2, SVG Export Plug-In . SVG Version: 6.00 Build 0)  -->
<svg version="1.1" id="Layer_1" xmlns="http://www.w3.org/2000/svg" xmlns:xlink="http://www.w3.org/1999/xlink" x="0px" y="0px"
	 viewBox="0 0 512 210.2" style="enable-background:new 0 0 512 210.2;" xml:space="preserve">
<style type="text/css">
	.st0{fill:#339900;}
	.st1{stroke:#000000;stroke-width:0.25;stroke-miterlimit:10;}
</style>
<g>
	<path class="st0" d="M185.3,33.2C131.1,35,88.6,80.4,90.4,134.5c0.4,13.1,3.5,25.9,8.9,37.8l51.4-89c1.3-2.4,4.3-3.2,6.7-1.8
		c2.4,1.3,3.2,4.3,1.8,6.7c0,0,0,0,0,0.1l-51.4,89c54-5,93.7-52.8,88.6-106.8C195.2,57.4,191.4,44.8,185.3,33.2z"/>
	<path class="st0" d="M30.4,109.6c-1.4-2.3-0.7-5.3,1.6-6.8c2.3-1.4,5.3-0.7,6.8,1.6l40.1,64.1C86,128.3,67.2,87.8,31.7,67.3
		c-9-5.2-18.7-8.9-28.8-11c-12.3,50.9,17.4,102.4,67.6,117.3L30.4,109.6z"/>
</g>
<g>
	<path d="M230,76.3l-7.5,7.9v20.5h-11.4V38.9h11.4v30.9l6.3-7.8l19.3-23.1H262L237.5,68l25.9,36.7h-13.6L230,76.3z"/>
	<path d="M281,95.6h29.9v9.1h-41.4V38.9H281V95.6z"/>
	<path d="M331.7,104.7h-11.4V38.9h11.4V104.7z"/>
	<path d="M360.7,38.9l19,50.5l19-50.5h14.8v65.9H402V83l1.1-29.1l-19.5,50.8h-8.2L356.1,54l1.1,29v21.7h-11.4V38.9H360.7z"/>
	<path d="M464.6,89.4h-25.5l-5.3,15.3h-11.9l24.9-65.9H457l24.9,65.9H470L464.6,89.4z M442.3,80.2h19.1l-9.5-27.3L442.3,80.2z"/>
	<path d="M511,81.2h-25.1v-8.9H511V81.2z"/>
	<path class="st1" d="M249.3,170.9h-8.7l-22.4-35.6v35.6h-8.7v-50.2h8.7l22.4,35.8v-35.8h8.7V170.9z"/>
	<path class="st1" d="M289,148.5h-20.6V164h24.1v7h-32.8v-50.2h32.6v7h-23.9v13.9H289V148.5z"/>
	<path class="st1" d="M336.3,120.7v33.5c0,5.3-1.7,9.6-5.1,12.7s-8,4.7-13.6,4.7c-5.7,0-10.3-1.5-13.7-4.6s-5.1-7.3-5.1-12.8v-33.5
		h8.7v33.6c0,3.4,0.9,5.9,2.6,7.7c1.7,1.8,4.2,2.7,7.5,2.7c6.7,0,10.1-3.5,10.1-10.6v-33.3H336.3z"/>
	<path class="st1" d="M381.9,127.8h-15.7v43.2h-8.7v-43.2H342v-7h39.8V127.8z"/>
	<path class="st1" d="M406.9,151.6h-9.7v19.3h-8.7v-50.2h17.7c5.8,0,10.3,1.3,13.4,3.9c3.1,2.6,4.7,6.4,4.7,11.3
		c0,3.4-0.8,6.2-2.4,8.4c-1.6,2.3-3.9,4-6.8,5.2l11.3,20.9v0.4h-9.3L406.9,151.6z M397.2,144.6h9c2.9,0,5.2-0.7,6.9-2.2
		s2.5-3.5,2.5-6.1c0-2.7-0.8-4.8-2.3-6.2c-1.5-1.5-3.8-2.2-6.8-2.3h-9.2V144.6z"/>
	<path class="st1" d="M460.6,159.2h-19.4l-4.1,11.7H428l19-50.2h7.8l19,50.2h-9.1L460.6,159.2z M443.6,152.2h14.5l-7.3-20.8
		L443.6,152.2z"/>
	<path class="st1" d="M488.2,164H511v7h-31.5v-50.2h8.7V164z"/>
</g>
</svg>
