<?xml version="1.0" encoding="UTF-8"?>
<svg id="Ebene_2" data-name="Ebene 2" xmlns="http://www.w3.org/2000/svg" viewBox="0 0 338.66 73.31">
  <defs>
    <style>
      .cls-1 {
        fill: none;
      }

      .cls-2 {
        fill: #1d1d1b;
      }

      .cls-3 {
        fill: #078ac6;
      }

      .cls-4 {
        fill: #1e1e1c;
      }

      .cls-5 {
        fill: #999;
      }
    </style>
  </defs>
  <g id="Ebene_1-2" data-name="Ebene 1">
    <g>
      <path class="cls-4" d="M80.33,16.27h2.83l3.12,11.88,3.06-11.88h2.35l3.06,11.91,3.15-11.91h2.8l-4.58,16.09h-2.6l-3.01-11.45-3.03,11.45h-2.6l-4.55-16.09h0Z"/>
      <path class="cls-4" d="M102.72,26.57v-10.3h2.66v10.67c0,2.17,1.6,3.26,3.4,3.26s3.38-1.2,3.38-3.26v-10.67h2.69v10.3c0,3.67-2.4,6.07-6.07,6.07s-6.07-2.41-6.07-6.07Z"/>
      <path class="cls-4" d="M118.29,16.27h2.52v2.26c.46-1.06,1.94-2.46,4.38-2.46,3.24,0,5.24,2.23,5.24,6.24v10.05h-2.69v-9.73c0-2.69-.86-4.32-3.4-4.32s-3.38,1.41-3.38,4.47v9.59h-2.66v-16.09h0Z"/>
      <path class="cls-4" d="M133.09,26.83h2.66c0,2.29,1.41,3.52,3.55,3.52,1.86,0,3.26-.94,3.26-2.46,0-3.52-9.02-1.32-9.02-7.3,0-2.87,2.09-4.55,5.64-4.55,3.89,0,5.9,1.92,5.9,5.61h-2.52c0-2.46-1.18-3.32-3.38-3.32-2,0-3.01.83-3.01,2.21,0,3.89,9.07,1.52,9.07,7.39,0,2.87-2.06,4.72-5.95,4.72s-6.21-2.21-6.21-5.81h0Z"/>
      <path class="cls-4" d="M147.82,26.32v-3.83c0-3.95,2.23-6.41,6.07-6.41s6.04,2.35,6.04,6.41v.05h-2.66v-.05c0-2.6-1.09-3.92-3.38-3.92s-3.4,1.26-3.4,4.26v3.52c0,2.35,1.12,3.83,3.4,3.83s3.38-1.35,3.38-3.92v-.09h2.66v.09c0,3.95-2.17,6.38-6.04,6.38s-6.07-2.46-6.07-6.33h0Z"/>
      <path class="cls-4" d="M163.08,10.83h2.66v7.7c.54-1.69,2.32-2.49,4.32-2.49,2.83,0,5.15,1.8,5.15,5.98v10.33h-2.69v-9.82c0-2.69-.75-4.24-3.4-4.24s-3.38,1.41-3.38,4.47v9.59h-2.66V10.83h0Z"/>
      <path class="cls-4" d="M178.39,10.74h3.78v12.05h1.26l3.24-6.52h4.29l-4.41,8.02,4.44,8.07h-4.29l-3.26-6.47h-1.26v6.47h-3.78V10.74h0Z"/>
      <path class="cls-4" d="M191.87,26.34v-3.92c0-3.92,2.23-6.36,6.13-6.36s6.07,2.26,6.07,6.21v3.15h-8.41v1.75c0,1.43,1.14,2.4,2.35,2.4s2.29-.71,2.29-2.03v-.34h3.78v.11c0,2.95-2.26,5.33-6.07,5.33s-6.13-2.43-6.13-6.3h0ZM200.29,22.79v-.77c0-2.15-.89-2.87-2.29-2.87s-2.35.75-2.35,2.46v1.18h4.63,0Z"/>
      <path class="cls-4" d="M206.64,16.27h3.52v1.83c.23-.52,1.49-2,3.83-2,2.92,0,4.84,1.8,4.84,5.9v10.36h-3.81v-10.08c0-1.98-.86-2.83-2.32-2.83-1.55,0-2.32.83-2.32,2.89v10.02h-3.75v-16.09h.01Z"/>
      <path class="cls-4" d="M221.67,16.27h3.52v1.83c.23-.52,1.49-2,3.83-2,2.92,0,4.84,1.8,4.84,5.9v10.36h-3.81v-10.08c0-1.98-.86-2.83-2.32-2.83-1.55,0-2.32.83-2.32,2.89v10.02h-3.75v-16.09h.01Z"/>
      <path class="cls-4" d="M241.5,19.65h-5.41v-3.38h10.73l-5.98,12.74h5.78v3.35h-11.1l5.98-12.71h0Z"/>
      <path class="cls-4" d="M248.52,26.34v-3.92c0-3.92,2.23-6.36,6.13-6.36s6.07,2.26,6.07,6.21v3.15h-8.41v1.75c0,1.43,1.14,2.4,2.35,2.4s2.29-.71,2.29-2.03v-.34h3.78v.11c0,2.95-2.26,5.33-6.07,5.33s-6.13-2.43-6.13-6.3h0ZM256.93,22.79v-.77c0-2.15-.89-2.87-2.29-2.87s-2.35.75-2.35,2.46v1.18h4.63,0Z"/>
      <path class="cls-4" d="M265.26,9.77c1.29,0,2.29,1.03,2.29,2.29s-1,2.26-2.29,2.26-2.29-1-2.29-2.26,1.03-2.29,2.29-2.29ZM263.37,16.27h3.75v16.09h-3.75v-16.09Z"/>
      <path class="cls-4" d="M269.98,26.34v-3.89c0-3.92,2.23-6.38,6.13-6.38s6.07,2.4,6.07,6.5v.11h-3.78v-.09c0-2.21-.89-3.12-2.29-3.12s-2.35.75-2.35,2.78v3.78c0,2.12.77,3.24,2.35,3.24,1.32,0,2.29-.94,2.29-3.03v-.11h3.78v.11c0,4.01-2.12,6.41-6.07,6.41s-6.13-2.43-6.13-6.3Z"/>
      <path class="cls-4" d="M284.75,10.74h3.75v7.07s1.14-1.75,3.72-1.75,4.72,1.46,4.72,5.78v10.51h-3.81v-9.07c0-2.66-.4-3.83-2.32-3.83-1.6,0-2.32.83-2.32,2.89v10.02h-3.75V10.74h0Z"/>
      <path class="cls-4" d="M299.32,26.34v-3.92c0-3.92,2.23-6.36,6.13-6.36s6.07,2.26,6.07,6.21v3.15h-8.41v1.75c0,1.43,1.14,2.4,2.35,2.4s2.29-.71,2.29-2.03v-.34h3.78v.11c0,2.95-2.26,5.33-6.07,5.33s-6.13-2.43-6.13-6.3h0ZM307.73,22.79v-.77c0-2.15-.89-2.87-2.29-2.87s-2.35.75-2.35,2.46v1.18h4.63,0Z"/>
      <path class="cls-4" d="M314.09,16.27h3.52v1.83c.23-.52,1.49-2,3.83-2,2.92,0,4.84,1.8,4.84,5.9v10.36h-3.81v-10.08c0-1.98-.86-2.83-2.32-2.83-1.55,0-2.32.83-2.32,2.89v10.02h-3.75v-16.09h.01Z"/>
    </g>
    <g>
      <path class="cls-4" d="M93.02,44.52h2.52v2.92c.48-1.92,2.21-3.26,4.67-3.12v2.66c-2.98-.14-4.52,1.35-4.52,4.32v9.3h-2.66v-16.09h0Z"/>
      <path class="cls-4" d="M101.64,54.57v-3.89c0-3.92,2.23-6.38,6.07-6.38s6.04,2.29,6.04,6.24v2.78h-9.44v1.8c0,2.29,1.49,3.55,3.4,3.55s3.38-1.23,3.38-3.01v-.26h2.66v.11c0,2.95-2.23,5.38-6.04,5.38s-6.07-2.46-6.07-6.33ZM111.08,51.36v-1c0-2.66-1.29-3.81-3.38-3.81s-3.4,1.23-3.4,3.58v1.23h6.79,0Z"/>
      <path class="cls-4" d="M116.12,55.08h2.66c0,2.29,1.41,3.52,3.55,3.52,1.86,0,3.26-.95,3.26-2.46,0-3.52-9.02-1.32-9.02-7.3,0-2.86,2.09-4.55,5.64-4.55,3.89,0,5.9,1.92,5.9,5.61h-2.52c0-2.46-1.18-3.32-3.38-3.32-2,0-3.01.83-3.01,2.21,0,3.89,9.07,1.52,9.07,7.39,0,2.87-2.06,4.72-5.95,4.72s-6.21-2.21-6.21-5.81h0Z"/>
      <path class="cls-4" d="M130.86,54.57v-3.89c0-3.92,2.23-6.38,6.07-6.38s6.04,2.29,6.04,6.24v2.78h-9.44v1.8c0,2.29,1.49,3.55,3.4,3.55s3.38-1.23,3.38-3.01v-.26h2.66v.11c0,2.95-2.23,5.38-6.04,5.38s-6.07-2.46-6.07-6.33h0ZM140.3,51.36v-1c0-2.66-1.29-3.81-3.38-3.81s-3.4,1.23-3.4,3.58v1.23h6.79,0Z"/>
      <path class="cls-4" d="M146.11,44.52h2.52v2.92c.48-1.92,2.21-3.26,4.67-3.12v2.66c-2.98-.14-4.52,1.35-4.52,4.32v9.3h-2.66v-16.09h0Z"/>
      <path class="cls-4" d="M154.81,44.52h2.98l3.87,12.48,3.81-12.48h2.98l-5.41,16.09h-2.78l-5.44-16.09h0Z"/>
      <path class="cls-4" d="M172.05,38.8c.94,0,1.69.75,1.69,1.69s-.75,1.69-1.69,1.69-1.69-.75-1.69-1.69.75-1.69,1.69-1.69ZM170.7,44.52h2.66v16.09h-2.66v-16.09Z"/>
      <path class="cls-4" d="M176.59,54.57v-3.89c0-3.92,2.23-6.38,6.07-6.38s6.04,2.29,6.04,6.24v2.78h-9.44v1.8c0,2.29,1.49,3.55,3.4,3.55s3.38-1.23,3.38-3.01v-.26h2.66v.11c0,2.95-2.23,5.38-6.04,5.38s-6.07-2.46-6.07-6.33h0ZM186.04,51.36v-1c0-2.66-1.29-3.81-3.38-3.81s-3.4,1.23-3.4,3.58v1.23h6.79,0Z"/>
      <path class="cls-4" d="M191.85,44.52h2.52v2.92c.48-1.92,2.21-3.26,4.67-3.12v2.66c-2.98-.14-4.52,1.35-4.52,4.32v9.3h-2.66v-16.09h0Z"/>
      <path class="cls-4" d="M200.46,54.57v-3.89c0-3.92,2.23-6.38,6.07-6.38s6.04,2.29,6.04,6.24v2.78h-9.44v1.8c0,2.29,1.49,3.55,3.4,3.55s3.38-1.23,3.38-3.01v-.26h2.66v.11c0,2.95-2.23,5.38-6.04,5.38s-6.07-2.46-6.07-6.33h0ZM209.91,51.36v-1c0-2.66-1.29-3.81-3.38-3.81s-3.4,1.23-3.4,3.58v1.23h6.79,0Z"/>
      <path class="cls-4" d="M215.72,44.52h2.52v2.26c.46-1.06,1.94-2.46,4.38-2.46,3.24,0,5.24,2.23,5.24,6.24v10.05h-2.69v-9.73c0-2.69-.86-4.32-3.4-4.32s-3.38,1.4-3.38,4.47v9.59h-2.66v-16.09h0Z"/>
      <path class="cls-5" d="M230.72,59.13c0-.94.75-1.72,1.69-1.72s1.69.77,1.69,1.72-.75,1.69-1.69,1.69-1.69-.77-1.69-1.69Z"/>
      <path class="cls-5" d="M236.78,54.57v-4.01c0-4.01,2-6.24,5.24-6.24,2.43,0,3.64,1.12,4.1,2.17v-7.41h2.8v21.52h-2.52v-2.21c-.6,1.18-1.69,2.46-4.38,2.46-3.24,0-5.24-2.21-5.24-6.3h0ZM242.88,58.67c2.17,0,3.38-1.55,3.38-4.44v-3.44c0-2.78-1.26-4.24-3.38-4.24-2.26,0-3.4,1.6-3.4,4.38v3.29c0,2.87,1.17,4.44,3.4,4.44h0Z"/>
      <path class="cls-5" d="M252.21,54.57v-3.89c0-3.92,2.23-6.38,6.07-6.38s6.04,2.29,6.04,6.24v2.78h-9.44v1.8c0,2.29,1.49,3.55,3.4,3.55s3.38-1.23,3.38-3.01v-.26h2.66v.11c0,2.95-2.23,5.38-6.04,5.38s-6.07-2.46-6.07-6.33h0ZM261.66,51.36v-1c0-2.66-1.29-3.81-3.38-3.81s-3.4,1.23-3.4,3.58v1.23h6.79,0Z"/>
    </g>
    <path class="cls-3" d="M71.49,33.16c0-.77-.63-1.4-1.4-1.4s-1.4.63-1.4,1.4c0,8.14-3.52,15.46-9.12,20.54v-15.25c0-1.6-1.3-2.9-2.9-2.9h-6.95V13.75c0-1.6-1.3-2.9-2.9-2.9h-10.87c-1.6,0-2.9,1.3-2.9,2.9v12.76h-7.83c-1.6,0-2.9,1.3-2.9,2.9v6.34s0,.04,0,.06,0,.04,0,.06v17.85c-5.61-5.08-9.14-12.42-9.14-20.56,0-.77-.63-1.4-1.4-1.4s-1.4.63-1.4,1.4c0,16.84,13.7,30.55,30.55,30.55,6.68,0,12.86-2.16,17.9-5.81.11-.06.21-.13.3-.21,7.49-5.57,12.36-14.49,12.36-24.52ZM45.71,46.22h11.07v9.71c-3.25,2.27-7.01,3.86-11.07,4.56v-14.27ZM56.77,38.46v4.96h-11.07v-4.96c0-.06.04-.1.1-.1h10.87c.06,0,.1.05.1.1ZM35.96,13.65h10.87c.05,0,.1.04.1.1v4.98h-11.07v-4.98c0-.06.04-.1.1-.1ZM25.23,29.31h10.87c.05,0,.1.04.1.1v5h-11.07v-5c0-.06.04-.1.1-.1ZM25.13,37.21h11.07v23.28c-4.06-.7-7.81-2.29-11.07-4.55v-18.73ZM39,60.83v-31.41c0-1.6-1.3-2.9-2.9-2.9h-.24v-4.98h11.07v14.02h-1.12c-1.6,0-2.9,1.3-2.9,2.9v22.37c-.65.05-1.3.08-1.97.08s-1.3-.03-1.94-.08Z"/>
    <path class="cls-2" d="M80.28,51.18h7.02v2.46h-7.02v-2.46Z"/>
    <rect class="cls-1" width="338.66" height="73.31"/>
  </g>
</svg>