<svg width="79" height="75" viewBox="0 0 79 75" fill="none" xmlns="http://www.w3.org/2000/svg">
<path d="M0 0H4V22.9839H0V0Z" fill="black"/>
<path d="M0 25.4032H4V49.5968H0V25.4032Z" fill="#D61019"/>
<path d="M0 52.0161H4V75H0V52.0161Z" fill="#FFBC00"/>
<path d="M18.5999 5.36C20.8999 5.36 22.2799 7.86 22.2799 12.16C22.2799 17.22 20.5399 19.16 18.3799 19.16C16.1399 19.16 14.6399 16.78 14.6399 12.24C14.6399 7.78 16.2399 5.36 18.5999 5.36ZM18.4599 6.72C16.7799 6.72 16.2399 9.52 16.2399 12.26C16.2399 15.04 16.7799 17.8 18.4799 17.8C20.2199 17.8 20.6799 14.86 20.6799 12.22C20.6799 9.7 20.2199 6.72 18.4599 6.72Z" fill="#282828"/>
<path d="M34.4615 5.46L34.1215 6.66C33.7815 6.5 33.2215 6.28 32.5215 6.28C30.9615 6.28 30.5815 7.36 30.5815 8.84V9.32H34.9215V19H33.3815V10.5H30.5815V19H29.0415V10.5H26.0415V19H24.5015V10.5H23.2815V9.32H24.5015V8.88C24.5015 7.64 24.7815 6.66 25.5415 5.94C26.0415 5.44 26.7815 5.16 27.5615 5.16C28.1415 5.16 28.6415 5.34 28.9015 5.46L28.4615 6.64C28.2215 6.52 27.9215 6.42 27.5815 6.42C27.1015 6.42 26.7215 6.62 26.4815 6.96C26.1415 7.4 26.0415 8.08 26.0415 8.86V9.32H29.0415V8.68C29.0415 6.96 29.8815 5 32.5615 5C33.3815 5 34.1015 5.24 34.4615 5.46Z" fill="#282828"/>
<path d="M36.3121 19V18.06L39.3721 12.08C39.6321 11.58 39.9321 11.08 40.1521 10.64V10.6H36.6921V9.32H41.8521V10.34L38.8321 16.24C38.5721 16.74 38.2721 17.24 38.0521 17.68V17.72H41.8521V19H36.3121Z" fill="#282828"/>
<path d="M44.8816 19H43.3416V9.32H44.8816V19ZM44.0816 5.82C44.6416 5.82 45.0016 6.22 45.0016 6.82C45.0216 7.42 44.6416 7.82 44.0616 7.82C43.5616 7.82 43.1816 7.42 43.1816 6.82C43.1816 6.22 43.5816 5.82 44.0816 5.82Z" fill="#282828"/>
<path d="M52.5935 14.3H48.0935C48.1135 17.26 49.2735 17.9 50.3935 17.9C51.0535 17.9 51.6135 17.74 51.9935 17.52L52.2335 18.66C51.6935 18.96 50.8735 19.12 50.1135 19.12C47.7935 19.12 46.5935 17.22 46.5935 14.26C46.5935 11.12 47.9135 9.16 49.8535 9.16C51.8335 9.16 52.6135 11.24 52.6135 13.44C52.6135 13.8 52.6135 14.06 52.5935 14.3ZM48.1135 13.16H51.1335C51.1735 11.22 50.4335 10.36 49.6935 10.36C48.6935 10.36 48.1735 11.84 48.1135 13.16Z" fill="#282828"/>
<path d="M54.2791 19V5.16H55.8191V19H54.2791Z" fill="#282828"/>
<path d="M58.1072 19V5.16H59.6472V19H58.1072Z" fill="#282828"/>
<path d="M15.1999 42.94V29.72C15.8399 29.56 16.5999 29.46 17.4599 29.46C18.6799 29.46 19.7199 29.72 20.4399 30.4C21.0199 30.94 21.3199 31.74 21.3199 32.7C21.3199 34.08 20.5599 35.18 19.2399 35.7V35.74C20.7999 36.16 21.7399 37.42 21.7399 39.18C21.7399 40.3 21.3799 41.2 20.7799 41.86C20.0199 42.72 18.7599 43.08 17.2199 43.08C16.2199 43.08 15.6199 43.02 15.1999 42.94ZM16.7399 30.76V35.24H17.4399C18.6999 35.24 19.7799 34.28 19.7799 32.86C19.7799 31.62 19.1999 30.66 17.5599 30.66C17.1999 30.66 16.9199 30.7 16.7399 30.76ZM16.7399 36.42V41.78C16.9199 41.82 17.1799 41.86 17.5199 41.86C19.1199 41.86 20.1599 40.92 20.1599 39.18C20.1599 37.32 18.8599 36.44 17.4199 36.42H16.7399Z" fill="#282828"/>
<path d="M29.1365 38.3H24.6365C24.6565 41.26 25.8165 41.9 26.9365 41.9C27.5965 41.9 28.1565 41.74 28.5365 41.52L28.7765 42.66C28.2365 42.96 27.4165 43.12 26.6565 43.12C24.3365 43.12 23.1365 41.22 23.1365 38.26C23.1365 35.12 24.4565 33.16 26.3965 33.16C28.3765 33.16 29.1565 35.24 29.1565 37.44C29.1565 37.8 29.1565 38.06 29.1365 38.3ZM24.6565 37.16H27.6765C27.7165 35.22 26.9765 34.36 26.2365 34.36C25.2365 34.36 24.7165 35.84 24.6565 37.16Z" fill="#282828"/>
<path d="M30.8221 43V29.16H32.3621V34.36H32.4021C32.6021 34.02 32.9021 33.72 33.2021 33.52C33.5621 33.3 33.9421 33.16 34.5021 33.16C35.7221 33.16 36.7621 34.14 36.7621 36.58V43H35.2221V36.76C35.2221 35.58 34.9621 34.46 33.9221 34.46C33.2021 34.46 32.6621 34.98 32.4221 36C32.3821 36.22 32.3621 36.5 32.3621 36.74V43H30.8221Z" fill="#282828"/>
<path d="M41.7475 33.16C43.4675 33.16 44.8675 34.78 44.8675 38.16C44.8675 41.9 43.1275 43.16 41.6475 43.16C39.9075 43.16 38.5075 41.58 38.5075 38.18C38.5075 34.64 40.0875 33.16 41.7475 33.16ZM41.6875 34.4C40.3076 34.4 40.0475 36.68 40.0475 38.16C40.0475 39.76 40.3275 41.94 41.7275 41.94C43.0475 41.94 43.3075 39.66 43.3075 38.16C43.3075 36.68 43.0476 34.4 41.6875 34.4ZM40.1475 31.68C39.6475 31.68 39.2475 31.3 39.2475 30.8C39.2475 30.28 39.6475 29.9 40.1475 29.9C40.6275 29.9 40.9875 30.26 40.9875 30.8C40.9875 31.3 40.6275 31.68 40.1475 31.68ZM43.2475 31.68C42.7475 31.68 42.3675 31.3 42.3675 30.8C42.3675 30.28 42.7675 29.9 43.2475 29.9C43.7275 29.9 44.1075 30.26 44.1075 30.8C44.1075 31.3 43.7475 31.68 43.2475 31.68Z" fill="#282828"/>
<path d="M46.5638 43V35.82C46.5638 35 46.5038 34.04 46.4838 33.32H47.8638L47.9438 34.84H47.9838C48.3038 33.92 49.1238 33.16 50.0238 33.16C50.1438 33.16 50.2438 33.18 50.3438 33.18V34.76C50.2438 34.74 50.1438 34.74 50.0238 34.74C49.0438 34.74 48.3238 35.64 48.1638 36.76C48.1238 37.02 48.1038 37.32 48.1038 37.64V43H46.5638Z" fill="#282828"/>
<path d="M55.5713 29.16H57.0913V40.68C57.0913 41.34 57.1513 42.44 57.1713 43H55.8513L55.7513 41.78H55.6913C55.3713 42.48 54.6913 43.16 53.6713 43.16C52.0313 43.16 50.8513 41.38 50.8513 38.2C50.8513 34.76 52.2713 33.16 53.7713 33.16C54.4713 33.16 55.1513 33.5 55.5313 34.32H55.5713V29.16ZM55.5713 39.58V37C55.5713 36.8 55.5713 36.58 55.5513 36.36C55.4513 35.36 54.8513 34.48 54.1113 34.48C52.8313 34.48 52.3913 36.26 52.3913 38.2C52.3913 40.24 52.9113 41.88 54.0313 41.88C54.5113 41.88 55.1713 41.62 55.5113 40.22C55.5513 40.04 55.5713 39.82 55.5713 39.58Z" fill="#282828"/>
<path d="M59.2596 43V29.16H60.7996V43H59.2596Z" fill="#282828"/>
<path d="M64.6277 43H63.0877V33.32H64.6277V43ZM63.8277 29.82C64.3877 29.82 64.7477 30.22 64.7477 30.82C64.7677 31.42 64.3877 31.82 63.8077 31.82C63.3077 31.82 62.9277 31.42 62.9277 30.82C62.9277 30.22 63.3277 29.82 63.8277 29.82Z" fill="#282828"/>
<path d="M71.2796 41.58L71.4796 42.76C71.1396 42.96 70.5596 43.12 69.8796 43.12C67.7596 43.12 66.3396 41.42 66.3396 38.22C66.3396 35.44 67.7396 33.18 70.1596 33.18C70.6796 33.18 71.2396 33.32 71.5196 33.48L71.2196 34.74C71.0196 34.64 70.6196 34.48 70.1196 34.48C68.5796 34.48 67.8796 36.32 67.8796 38.22C67.8796 40.48 68.7396 41.84 70.1596 41.84C70.5796 41.84 70.9196 41.74 71.2796 41.58Z" fill="#282828"/>
<path d="M72.7947 43V29.16H74.3347V34.36H74.3747C74.5747 34.02 74.8747 33.72 75.1747 33.52C75.5347 33.3 75.9147 33.16 76.4747 33.16C77.6947 33.16 78.7347 34.14 78.7347 36.58V43H77.1947V36.76C77.1947 35.58 76.9347 34.46 75.8947 34.46C75.1747 34.46 74.6347 34.98 74.3947 36C74.3547 36.22 74.3347 36.5 74.3347 36.74V43H72.7947Z" fill="#282828"/>
<path d="M15.1999 67V53.72C15.8599 53.54 16.6599 53.46 17.4199 53.46C18.7599 53.46 19.7599 53.74 20.4599 54.42C21.1199 55.1 21.3999 56 21.3999 57.06C21.3999 58.78 20.5999 59.9 19.2399 60.52V60.56C20.2399 60.86 20.7599 61.82 21.0599 63.58C21.3599 65.44 21.6399 66.58 21.8199 67H20.2599C20.0599 66.6 19.7999 65.32 19.5399 63.66C19.2399 61.82 18.6599 61.12 17.3399 61.12H16.7399V67H15.1999ZM16.7399 54.78V59.94H17.3799C18.8599 59.94 19.8399 58.86 19.8399 57.24C19.8399 55.68 19.1999 54.72 17.5399 54.7C17.2399 54.7 16.9399 54.72 16.7399 54.78Z" fill="#282828"/>
<path d="M28.8435 62.3H24.3435C24.3635 65.26 25.5235 65.9 26.6435 65.9C27.3035 65.9 27.8635 65.74 28.2435 65.52L28.4835 66.66C27.9435 66.96 27.1235 67.12 26.3635 67.12C24.0435 67.12 22.8435 65.22 22.8435 62.26C22.8435 59.12 24.1635 57.16 26.1035 57.16C28.0835 57.16 28.8635 59.24 28.8635 61.44C28.8635 61.8 28.8635 62.06 28.8435 62.3ZM24.3635 61.16H27.3835C27.4235 59.22 26.6835 58.36 25.9435 58.36C24.9435 58.36 24.4235 59.84 24.3635 61.16Z" fill="#282828"/>
<path d="M35.0691 57.32H36.4491C36.4291 58 36.3691 58.86 36.3691 60.34V65.76C36.3691 68.3 36.0491 69.26 35.4091 69.96C34.8291 70.62 33.9091 71 32.8291 71C32.0091 71 31.2091 70.8 30.7091 70.52L31.0691 69.32C31.4491 69.52 32.0891 69.74 32.8691 69.74C34.0891 69.74 34.8491 68.98 34.8491 66.78V65.8H34.8091C34.4691 66.56 33.7691 66.98 32.9491 66.98C31.2291 66.98 30.1091 65.04 30.1091 62.2C30.1091 58.64 31.7291 57.16 33.1491 57.16C34.1891 57.16 34.6691 57.84 34.9491 58.42H34.9891L35.0691 57.32ZM34.8491 63.46V60.66C34.8491 60.42 34.8291 60.16 34.7691 59.96C34.5891 59.3 34.2491 58.48 33.3691 58.48C32.2491 58.48 31.6491 59.98 31.6491 62.12C31.6491 64.6 32.4291 65.72 33.3691 65.72C33.8291 65.72 34.4291 65.5 34.7491 64.34C34.8291 64.04 34.8491 63.74 34.8491 63.46Z" fill="#282828"/>
<path d="M40.0574 67H38.5174V57.32H40.0574V67ZM39.2574 53.82C39.8174 53.82 40.1774 54.22 40.1774 54.82C40.1974 55.42 39.8174 55.82 39.2374 55.82C38.7374 55.82 38.3574 55.42 38.3574 54.82C38.3574 54.22 38.7574 53.82 39.2574 53.82Z" fill="#282828"/>
<path d="M41.5493 66.56L41.9293 65.4C42.2693 65.62 42.8693 65.9 43.4893 65.9C44.3693 65.9 44.9093 65.36 44.9093 64.5C44.9093 63.76 44.6493 63.26 43.6693 62.6C42.4093 61.78 41.7293 60.96 41.7293 59.84C41.7293 58.28 42.8893 57.16 44.3893 57.16C45.1493 57.16 45.7293 57.42 46.1293 57.66L45.7093 58.82C45.3493 58.58 44.9293 58.4 44.4293 58.4C43.5893 58.4 43.1693 59 43.1693 59.62C43.1693 60.28 43.4093 60.64 44.3693 61.3C45.4893 62.02 46.3693 62.9 46.3693 64.24C46.3693 66.18 45.0493 67.12 43.4693 67.12C42.7493 67.12 41.9693 66.9 41.5493 66.56Z" fill="#282828"/>
<path d="M48.3105 55.2L49.8505 54.76V57.32H51.7105V58.5H49.8505V64.24C49.8505 65.5 50.3105 65.84 50.8705 65.84C51.1105 65.84 51.3105 65.82 51.4905 65.78L51.5505 66.96C51.2705 67.06 50.9105 67.12 50.4105 67.12C49.8105 67.12 49.2705 66.96 48.8905 66.54C48.5105 66.1 48.3105 65.44 48.3105 64.1V58.5H47.1305V57.32H48.3105V55.2Z" fill="#282828"/>
<path d="M53.0482 67V59.82C53.0482 59 52.9882 58.04 52.9682 57.32H54.3482L54.4282 58.84H54.4682C54.7882 57.92 55.6082 57.16 56.5082 57.16C56.6282 57.16 56.7282 57.18 56.8282 57.18V58.76C56.7282 58.74 56.6282 58.74 56.5082 58.74C55.5282 58.74 54.8082 59.64 54.6482 60.76C54.6082 61.02 54.5882 61.32 54.5882 61.64V67H53.0482Z" fill="#282828"/>
<path d="M59.5691 67H58.0291V57.32H59.5691V67ZM58.7691 53.82C59.3291 53.82 59.6891 54.22 59.6891 54.82C59.7091 55.42 59.3291 55.82 58.7491 55.82C58.2491 55.82 57.8691 55.42 57.8691 54.82C57.8691 54.22 58.2691 53.82 58.7691 53.82Z" fill="#282828"/>
<path d="M67.281 62.3H62.781C62.801 65.26 63.961 65.9 65.081 65.9C65.741 65.9 66.301 65.74 66.681 65.52L66.921 66.66C66.381 66.96 65.561 67.12 64.801 67.12C62.481 67.12 61.281 65.22 61.281 62.26C61.281 59.12 62.601 57.16 64.541 57.16C66.521 57.16 67.301 59.24 67.301 61.44C67.301 61.8 67.301 62.06 67.281 62.3ZM62.801 61.16H65.821C65.861 59.22 65.121 58.36 64.381 58.36C63.381 58.36 62.861 59.84 62.801 61.16Z" fill="#282828"/>
<path d="M68.9466 67V59.82C68.9466 59 68.8866 58.04 68.8666 57.32H70.2466L70.3266 58.84H70.3666C70.6866 57.92 71.5066 57.16 72.4066 57.16C72.5266 57.16 72.6266 57.18 72.7266 57.18V58.76C72.6266 58.74 72.5266 58.74 72.4066 58.74C71.4266 58.74 70.7066 59.64 70.5466 60.76C70.5066 61.02 70.4866 61.32 70.4866 61.64V67H68.9466Z" fill="#282828"/>
<path d="M74.7558 55.2L76.2958 54.76V57.32H78.1558V58.5H76.2958V64.24C76.2958 65.5 76.7558 65.84 77.3158 65.84C77.5558 65.84 77.7558 65.82 77.9358 65.78L77.9958 66.96C77.7158 67.06 77.3558 67.12 76.8558 67.12C76.2558 67.12 75.7158 66.96 75.3358 66.54C74.9558 66.1 74.7558 65.44 74.7558 64.1V58.5H73.5758V57.32H74.7558V55.2Z" fill="#282828"/>
</svg>
