<?xml version="1.0" encoding="utf-8"?>
<!-- Generator: Adobe Illustrator 26.0.2, SVG Export Plug-In . SVG Version: 6.00 Build 0)  -->
<svg version="1.1" id="Layer_1" xmlns="http://www.w3.org/2000/svg" xmlns:xlink="http://www.w3.org/1999/xlink" x="0px" y="0px"
	 viewBox="0 0 512 210.2" style="enable-background:new 0 0 512 210.2;" xml:space="preserve">
<g>
	<path d="M156.4,74.5l-5.8,6.1v15.9h-8.8V45.6h8.8v23.9l4.9-6l14.9-17.8h10.7l-18.9,22.5l20,28.3h-10.5L156.4,74.5z"/>
	<path d="M215.5,84.7h-19.7l-4.1,11.8h-9.2l19.2-50.9h7.9l19.2,50.9h-9.2L215.5,84.7z M198.2,77.5H213l-7.4-21.1L198.2,77.5z"/>
	<path d="M271.3,45.6v34c0,5.4-1.7,9.7-5.2,12.8c-3.5,3.2-8.1,4.7-13.8,4.7c-5.8,0-10.4-1.6-13.9-4.7c-3.4-3.1-5.1-7.4-5.1-12.9v-34
		h8.8v34c0,3.4,0.9,6,2.6,7.8c1.7,1.8,4.3,2.7,7.6,2.7c6.8,0,10.2-3.6,10.2-10.8V45.6H271.3z"/>
	<path d="M310.1,75h-20.5v21.6h-8.8V45.6h32.3v7.1h-23.5v15.1h20.5V75z"/>
	<path d="M366.5,84.7h-19.7l-4.1,11.8h-9.2l19.2-50.9h7.9l19.2,50.9h-9.2L366.5,84.7z M349.3,77.5H364l-7.4-21.1L349.3,77.5z"/>
	<path d="M422.3,45.6v34c0,5.4-1.7,9.7-5.2,12.8c-3.5,3.2-8.1,4.7-13.8,4.7c-5.8,0-10.4-1.6-13.9-4.7c-3.4-3.1-5.1-7.4-5.1-12.9v-34
		h8.8v34c0,3.4,0.9,6,2.6,7.8c1.7,1.8,4.3,2.7,7.6,2.7c6.8,0,10.2-3.6,10.2-10.8V45.6H422.3z"/>
	<path d="M461.1,75h-20.5v21.6h-8.8V45.6h32.3v7.1h-23.5v15.1h20.5V75z"/>
	<path d="M160.5,141.9h-9.9v19.6h-8.8v-50.9h17.9c5.9,0,10.4,1.3,13.6,4c3.2,2.6,4.8,6.4,4.8,11.4c0,3.4-0.8,6.3-2.5,8.5
		c-1.6,2.3-3.9,4.1-6.9,5.3l11.4,21.2v0.5h-9.5L160.5,141.9z M150.6,134.8h9.1c3,0,5.3-0.8,7-2.3c1.7-1.5,2.5-3.6,2.5-6.2
		c0-2.7-0.8-4.8-2.3-6.3c-1.5-1.5-3.9-2.3-6.9-2.3h-9.3V134.8z"/>
	<path d="M216.2,138.7h-20.9v15.6h24.4v7.1h-33.3v-50.9h33v7.1h-24.2v14h20.9V138.7z"/>
	<path d="M265.7,144.9c-0.5,5.4-2.5,9.7-6,12.7c-3.5,3-8.1,4.6-13.9,4.6c-4.1,0-7.6-1-10.7-2.9c-3.1-1.9-5.5-4.7-7.1-8.2
		c-1.7-3.5-2.5-7.7-2.6-12.3V134c0-4.8,0.9-9,2.6-12.7c1.7-3.7,4.1-6.5,7.3-8.5c3.2-2,6.9-3,11-3c5.6,0,10.1,1.5,13.6,4.6
		c3.4,3,5.4,7.3,6,12.9h-8.8c-0.4-3.7-1.5-6.3-3.2-7.9c-1.7-1.6-4.2-2.4-7.5-2.4c-3.8,0-6.8,1.4-8.9,4.2c-2.1,2.8-3.1,6.9-3.2,12.4
		v4.5c0,5.5,1,9.7,3,12.6c2,2.9,4.8,4.3,8.6,4.3c3.5,0,6.1-0.8,7.8-2.3c1.7-1.6,2.9-4.2,3.3-7.8H265.7z"/>
	<path d="M314,161.4h-8.8v-22.6h-22.7v22.6h-8.8v-50.9h8.8v21.2h22.7v-21.2h8.8V161.4z"/>
	<path d="M364.8,161.4h-8.8l-22.7-36.1v36.1h-8.8v-50.9h8.8l22.7,36.2v-36.2h8.8V161.4z"/>
	<path d="M412.4,110.6v34c0,5.4-1.7,9.7-5.2,12.8c-3.5,3.2-8.1,4.7-13.8,4.7c-5.8,0-10.4-1.6-13.9-4.7c-3.4-3.1-5.1-7.4-5.1-12.9
		v-34h8.8v34c0,3.4,0.9,6,2.6,7.8c1.7,1.8,4.3,2.7,7.6,2.7c6.8,0,10.2-3.6,10.2-10.8v-33.7H412.4z"/>
	<path d="M462.2,161.4h-8.8l-22.7-36.1v36.1h-8.8v-50.9h8.8l22.7,36.2v-36.2h8.8V161.4z"/>
	<path d="M511.6,154.8c-1.8,2.4-4.4,4.2-7.7,5.4c-3.3,1.2-7,1.9-11.1,1.9c-4.3,0-8-1-11.3-2.9c-3.3-1.9-5.8-4.7-7.6-8.3
		c-1.8-3.6-2.7-7.8-2.8-12.6v-4c0-7.7,1.8-13.7,5.5-18c3.7-4.3,8.8-6.5,15.4-6.5c5.7,0,10.2,1.4,13.5,4.2c3.3,2.8,5.3,6.8,6,12.1
		h-8.7c-1-6.1-4.5-9.2-10.7-9.2c-4,0-7,1.4-9,4.3c-2.1,2.9-3.1,7-3.2,12.5v3.9c0,5.5,1.2,9.8,3.5,12.8c2.3,3,5.5,4.6,9.7,4.6
		c4.5,0,7.7-1,9.6-3.1v-10h-10.5v-6.7h19.3V154.8z"/>
</g>
<g>
	<path d="M118.5,25.5H8.7c-4.7,0-8.5,4.2-8.5,9.5v137.9c0,5.2,3.8,9.5,8.5,9.5h70.8l47.5-47.1V35C127,29.7,123.2,25.5,118.5,25.5z
		 M8.7,174.8c-0.3,0-1-0.7-1-1.9V35c0-1.3,0.7-1.9,1-1.9h109.8c0.3,0,1,0.7,1,1.9V132l-0.1,0.1H79.6c-1.5,0-2.7,1.4-2.7,3v39.2
		l-0.4,0.4H8.7z M111.8,139.6l-27.4,27.3v-27.3H111.8z"/>
</g>
<path d="M69.5,66.6c3.1,0,6.1,0.5,9.1,1.5l0.8-6.7c-3.8-0.9-7.1-1.3-10-1.3c-6.8,0-12.1,2-16.1,6c-4,4-6.1,9.6-6.4,16.9h-7.4v5.2H47
	v5.7h-7.4V99H47c0.2,7.4,2.2,13.2,6.2,17.3c4,4.1,9.4,6.1,16.3,6.1c3.3,0,6.7-0.4,10-1.3l-0.8-6.7c-2.8,0.9-5.9,1.4-9.1,1.4
	c-4.6,0-8.1-1.5-10.6-4.4c-2.5-2.9-3.8-7.1-3.9-12.5h16v-5.2H55v-5.7h16v-5.2h-16c0.2-5.2,1.5-9.3,3.9-12.1
	C61.5,68,65,66.6,69.5,66.6z"/>
</svg>
