<svg id="Ebene_1" data-name="Ebene 1" xmlns="http://www.w3.org/2000/svg" viewBox="0 0 100 32"><defs><style>.cls-1{fill:#1a1f70;}.cls-2{fill:#231f20;}.cls-3{fill:#ff5f00;}.cls-4{fill:#eb001b;}.cls-5{fill:#f79e1b;}</style></defs><path class="cls-1" d="M41.5511,5.6973C37.0436,5.6973,33,8.0347,33,12.3619c0,4.9583,7.1541,5.3,7.1541,7.7916,0,1.05-1.2042,1.99-3.2519,1.99a10.7983,10.7983,0,0,1-5.0935-1.2879l-.9336,4.3659A15.9177,15.9177,0,0,0,36.683,26.303c4.9389,0,8.8218-2.4534,8.8218-6.8514,0-5.2416-7.1734-5.5764-7.1734-7.8881,0-.8178.9852-1.7193,3.0329-1.7193a10.34,10.34,0,0,1,4.1984.953l.908-4.2177A13.6493,13.6493,0,0,0,41.5511,5.6973Z"/><path class="cls-1" d="M.2045,6.0128.095,6.6567A21.1774,21.1774,0,0,1,3.7074,7.6935c2.2023.792,2.3568,1.2556,2.73,2.698l4.0439,15.5831H15.897L24.2681,6.0128h-5.409l-5.3833,13.574L11.2865,8.08a2.3633,2.3633,0,0,0-2.46-2.067Z"/><polygon class="cls-1" points="26.425 6.013 22.182 25.975 27.34 25.975 31.564 6.013 26.425 6.013 26.425 6.013"/><path class="cls-1" d="M59.53,6.0128H55.183a2.392,2.392,0,0,0-2.3889,1.8288l-7.5533,18.133H50.65l1.0431-3.02h6.6l.6439,3.02h4.7715ZM53.1933,18.8914l2.6916-7.4825,1.6034,7.4889Z"/><path class="cls-2" d="M78.2294,26.2207V24.8529a.8064.8064,0,0,0-.7442-.8642l-.0042,0h-.1032a.8517.8517,0,0,0-.7677.3871.7935.7935,0,0,0-.7226-.3871.71.71,0,0,0-.6452.3226V24.04h-.4774v2.1807h.4774V25.0465a.51.51,0,0,1,.4362-.5739l.0025,0h.0968c.3162,0,.471.2064.471.5742v1.2129h.4774V25.0465a.5161.5161,0,0,1,.4452-.5742h.09c.3226,0,.4774.2064.4774.5742v1.2129ZM85.3262,24.04H84.552v-.6451h-.4581V24.04h-.4451v.4323h.4451v.9935c0,.51.1936.8065.7549.8065a1.1488,1.1488,0,0,0,.5935-.1678l-.1742-.4129a.7929.7929,0,0,1-.4129.1226c-.2387,0-.3161-.1419-.3161-.3613v-.9806h.7742Zm4.0387-.0516a.6451.6451,0,0,0-.5742.3161V24.04h-.4645v2.1807h.471V25.0013c0-.3613.1548-.5613.4645-.5613a.7809.7809,0,0,1,.2967.0516l.1484-.4451A1.0315,1.0315,0,0,0,89.3649,23.9884Zm-6.11.2258a1.5748,1.5748,0,0,0-.8838-.2258c-.5549,0-.91.2645-.91.6968s.2645.5742.7548.6451l.2194.0323c.258.0387.3806.11.3806.2323s-.1677.2645-.4968.2645a1.18,1.18,0,0,1-.7225-.2323l-.2194.3742a1.5674,1.5674,0,0,0,.9419.2774c.6452,0,.9936-.2967.9936-.71s-.29-.5807-.7613-.6452l-.2258-.0323c-.2065,0-.3677-.0645-.3677-.2129s.1548-.2516.4129-.2516a1.3232,1.3232,0,0,1,.6451.1871Zm12.6968-.2258a.6451.6451,0,0,0-.5742.3161V24.04h-.471v2.1807h.471V25.0013c0-.3613.1548-.5613.4645-.5613a.7565.7565,0,0,1,.2968.0516l.1484-.4451A.9942.9942,0,0,0,95.952,23.9884Zm-6.11,1.1419A1.11,1.11,0,0,0,90.9,26.2787h.1032a1.1157,1.1157,0,0,0,.7871-.258l-.2258-.3807a.9749.9749,0,0,1-.5742.1936.6968.6968,0,0,1,0-1.3936.9749.9749,0,0,1,.5742.1936l.2258-.3807a1.1485,1.1485,0,0,0-.7871-.258,1.09,1.09,0,0,0-1.1655,1.0095l-.0022.0421a.6482.6482,0,0,0,0,.11Zm4.4387,0V24.04h-.51v.2645a.8386.8386,0,0,0-.6451-.3161,1.142,1.142,0,1,0,0,2.2839.82.82,0,0,0,.6451-.3161v.2645h.471Zm-1.7613,0a.6714.6714,0,1,1,0,.0517Zm-5.7161-1.1419a1.142,1.142,0,0,0,0,2.2839,1.2907,1.2907,0,0,0,.89-.3032l-.2322-.3484a1.065,1.065,0,0,1-.6452.2258.6.6,0,0,1-.6451-.5355h1.6193V25.13a1.045,1.045,0,0,0-.9439-1.1374q-.044-.0042-.0884-.0045Zm0,.4258a.5419.5419,0,0,1,.5548.5226H86.2036a.5484.5484,0,0,1,.573-.5226h.027Zm11.89.7161V23.1949h-.4774V24.33a.826.826,0,0,0-.6839-.3161,1.142,1.142,0,0,0,0,2.2839.8066.8066,0,0,0,.6839-.3161v.2645h.4774Zm.7871.7742a.1829.1829,0,0,1,.0839,0,.1363.1363,0,0,1,.071.0452.287.287,0,0,1,.0516.071.19.19,0,0,1-.0516.2322.1363.1363,0,0,1-.071.0452.18.18,0,0,1-.0839,0,.2322.2322,0,0,1-.2064-.129.2516.2516,0,0,1,0-.1678.2838.2838,0,0,1,.0516-.071.1677.1677,0,0,1,.0709-.0451.2011.2011,0,0,1,.0839,0Zm0,.3871h.0645l.0581-.0387a.1742.1742,0,0,0,0-.2387l-.0581-.0387h-.129l-.0516.0387a.1614.1614,0,0,0-.0109.2279l.0109.0108.0516.0387Zm0-.2709a.09.09,0,0,1,.0581,0,.0454.0454,0,0,1,0,.0451.0584.0584,0,0,1,0,.0387.07.07,0,0,1-.0452,0l.0645.0775h-.0516l-.0645-.0775h0v.0775h-.0387v-.2Zm-.0516.0387v.0516h0ZM96.9133,25.13a.6451.6451,0,0,1,.6431-.6472c.0179,0,.0358.0007.0536.0021a.6452.6452,0,1,1-.6967.6451Zm-16,0V24.04h-.471v.2645a.8387.8387,0,0,0-.69-.3161,1.142,1.142,0,0,0,0,2.2839.82.82,0,0,0,.69-.3161v.2645h.471Zm-1.7613,0a.6714.6714,0,1,1,0,.0517Z"/><rect class="cls-3" x="83.0875" y="7.4465" width="7.1742" height="12.8968"/><path class="cls-4" d="M83.5391,13.8917a8.1935,8.1935,0,0,1,3.1355-6.4452,8.2,8.2,0,1,0,0,12.9032A8.2062,8.2062,0,0,1,83.5391,13.8917Z"/><path class="cls-5" d="M99.9455,13.8917a8.2,8.2,0,0,1-13.2709,6.4516A8.2064,8.2064,0,0,0,88.0552,8.8207a8.4339,8.4339,0,0,0-1.3806-1.3742,8.2064,8.2064,0,0,1,13.2709,6.4516Z"/><path class="cls-5" d="M99.1649,18.9755V18.711h.1032v-.0516h-.271v.0516h.11v.2645Zm.5226,0v-.3161h-.11l-.09.2193-.0968-.2193h-.0839v.3161h.0581v-.2387l.09.2065h.0581l.09-.2065v.2387Z"/></svg>