<svg xmlns="http://www.w3.org/2000/svg" viewBox="0 0 752 400">
  <defs>
    <style>
      .a {
        fill: #fff;
      }

      .b {
        fill: #3c4043;
      }

      .c {
        fill: #4285f4;
      }

      .d {
        fill: #34a853;
      }

      .e {
        fill: #fabb05;
      }

      .f {
        fill: #e94235;
      }
    </style>
  </defs>
  <g>
    <path class="a" d="M552,0H200C90,0,0,90,0,200H0C0,310,90,400,200,400H552c110,0,200-90,200-200h0C752,90,662,0,552,0Z"/>
    <path class="b" d="M552,16.2a181.43,181.43,0,0,1,71.3,14.5,185.43,185.43,0,0,1,98,98,182.55,182.55,0,0,1,0,142.6,185.43,185.43,0,0,1-98,98A181.43,181.43,0,0,1,552,383.8H200a181.43,181.43,0,0,1-71.3-14.5,185.43,185.43,0,0,1-98-98,182.55,182.55,0,0,1,0-142.6,185.43,185.43,0,0,1,98-98A181.43,181.43,0,0,1,200,16.2H552M552,0H200C90,0,0,90,0,200H0C0,310,90,400,200,400H552c110,0,200-90,200-200h0C752,90,662,0,552,0Z"/>
    <g>
      <g>
        <path class="b" d="M358.6,214.2v60.5H339.4V125.3h50.9c12.9,0,23.9,4.3,32.9,12.9Q437,151.1,437,169.7a41.3,41.3,0,0,1-13.8,31.7c-8.9,8.5-19.9,12.7-32.9,12.7H358.6Zm0-70.5v52.1h32.1a25.63,25.63,0,0,0,19-7.7,25.18,25.18,0,0,0,7.7-18.3,24.9,24.9,0,0,0-7.7-18.1c-5-5.3-11.3-7.9-19-7.9H358.6Z"/>
        <path class="b" d="M487.2,169.1q21.3,0,33.6,11.4t12.3,31.2v63H514.8V260.5H514c-7.9,11.7-18.5,17.5-31.7,17.5-11.3,0-20.7-3.3-28.3-10a31.93,31.93,0,0,1-11.4-25q0-15.9,12-25.2c8-6.3,18.7-9.4,32-9.4,11.4,0,20.8,2.1,28.1,6.3v-4.4c0-6.7-2.6-12.3-7.9-17a27.1,27.1,0,0,0-18.6-7c-10.7,0-19.2,4.5-25.4,13.6l-16.9-10.6Q459.85,169.05,487.2,169.1Zm-24.8,74.2a15.14,15.14,0,0,0,6.4,12.5,23.5,23.5,0,0,0,14.9,5q12.15,0,21.6-9c6.3-6,9.5-13,9.5-21.1-6-4.7-14.3-7.1-25-7.1-7.8,0-14.3,1.9-19.5,5.6C465,233.1,462.4,237.8,462.4,243.3Z"/>
        <path class="b" d="M637.5,172.4l-64,147.2H553.7l23.8-51.5-42.2-95.7h20.9l30.4,73.4h.4l29.6-73.4Z"/>
      </g>
      <g>
        <path class="c" d="M282.23,202a101.06,101.06,0,0,0-1.6-18H200.15v33H246.5a39.7,39.7,0,0,1-17.2,26.58V265h27.59C273,250.08,282.23,228,282.23,202Z"/>
        <path class="d" d="M229.31,243.58c-7.68,5.18-17.57,8.21-29.14,8.21-22.35,0-41.31-15.06-48.1-35.36H123.61v22.08a85.67,85.67,0,0,0,76.56,47.18c23.14,0,42.58-7.61,56.73-20.71Z"/>
        <path class="e" d="M149.39,200.05a51.66,51.66,0,0,1,2.68-16.39V161.58H123.61a85.78,85.78,0,0,0,0,76.94l28.46-22.08A51.66,51.66,0,0,1,149.39,200.05Z"/>
        <path class="f" d="M200.17,148.3A46.55,46.55,0,0,1,233,161.15l24.45-24.43c-14.85-13.83-34.21-22.32-57.32-22.32a85.69,85.69,0,0,0-76.56,47.18l28.46,22.08C158.86,163.36,177.82,148.3,200.17,148.3Z"/>
      </g>
    </g>
  </g>
</svg>
