<?xml version="1.0" encoding="utf-8"?>
<!-- Generator: Adobe Illustrator 26.0.2, SVG Export Plug-In . SVG Version: 6.00 Build 0)  -->
<svg version="1.1" id="Ebene_1" xmlns="http://www.w3.org/2000/svg" xmlns:xlink="http://www.w3.org/1999/xlink" x="0px" y="0px"
	 viewBox="0 0 113.3858 62.9921" style="enable-background:new 0 0 113.3858 62.9921;" xml:space="preserve">
<style type="text/css">
	.st0{fill:#016FD0;}
	.st1{fill:#FFFFFF;}
</style>
<rect x="0" class="st0" width="113.3858" height="62.9921"/>
<g id="layer1_00000057144922828137027500000005748907064496458917_" transform="translate(-55.5,-1002.3452)">
	<path id="path3082" class="st1" d="M85.7362,1050.8611v-13.6063h14.3622l1.5118,2.0157l1.5118-2.0157h52.4094v12.5984
		c0,0-1.2598,1.0079-3.0236,1.0079h-28.4724l-1.7638-2.2677v2.2677h-5.7953v-3.7795c0,0-0.7559,0.504-2.5197,0.504h-2.0158v3.2755
		h-8.5669l-1.5118-2.0156l-1.5118,2.0156H85.7362z"/>
	<path id="path3080" class="st1" d="M66.3346,1032.9714l5.7953-13.6064h5.5433l1.7638,4.2835v-4.2835h7.0551l1.0079,3.0237
		l1.0079-3.0237h31.4961v1.5118c0,0,1.7638-1.5118,4.2835-1.5118h10.3307l1.7638,4.2835v-4.2835h5.7953l1.5118,2.5197v-2.5197
		h6.0472v13.6064h-6.0472l-1.5118-2.5197v2.5197h-8.5669l-0.7559-2.2678h-2.2677l-0.7559,2.2678h-5.7953
		c-2.2677,0-3.7795-1.5117-3.7795-1.5117v1.5117h-8.8189l-1.7638-2.2678v2.2678H76.9173l-0.7559-2.2678h-2.2677l-0.7559,2.2678
		h-4.0315H66.3346z"/>
	<path id="path3046_00000057849328473577154650000015828989532448407448_" class="st0" d="M73.3898,1021.1289l-4.2835,10.3306
		h2.7717l0.7559-2.0156h4.7874l0.7559,2.0156h3.0236l-4.2835-10.3306H73.3898L73.3898,1021.1289z M74.9016,1023.3967l1.5118,3.5276
		h-2.7716L74.9016,1023.3967z"/>
	<path id="path3048_00000144306540881806769460000005331354369818575288_" class="st0" d="M81.4528,1031.2076v-10.3307h4.0315
		l2.2677,6.5511l2.2677-6.5511h4.0315v10.3307h-2.5197v-7.5591l-2.7717,7.5591h-2.2677l-2.7717-7.5591v7.5591H81.4528z"/>
	<path id="path3050_00000007415031286732944200000013883277814195841172_" class="st0" d="M95.815,1031.2076v-10.3307h8.315v2.2678
		h-5.7953v1.7638h5.5433v2.2678h-5.5433v1.7638h5.7953v2.2677h-8.315V1031.2076z"/>
	<path id="path3052_00000059301035210237095890000010190039977800445371_" class="st0" d="M105.6417,1021.1289v10.3306h2.5197
		v-3.5276h1.0079l3.0236,3.5276h3.0236l-3.2756-3.7794c1.2598,0,2.7717-1.2599,2.7717-3.0237c0-2.2678-1.7638-3.2756-3.5276-3.2756
		h-5.5433V1021.1289z M108.4134,1023.3967h3.0236c0.7559,0,1.2598,0.504,1.2598,1.0079c0,0.756-0.7559,1.0079-1.2598,1.0079h-3.0236
		V1023.3967L108.4134,1023.3967z"/>
	<path id="path3054_00000122705264694138307100000008927209338866025886_" class="st0" d="M118.7441,1031.2076h-2.5197v-10.3307
		h2.5197V1031.2076z"/>
	<path id="path3056_00000026877547413884462570000011507085675855981707_" class="st0" d="M124.7913,1031.2076h-0.5039
		c-2.7716,0-4.2835-2.2678-4.2835-5.0394c0-3.0236,1.5118-5.0393,5.0394-5.0393h2.7717v2.5197h-3.0236
		c-1.5118,0-2.2677,1.0079-2.2677,2.7716c0,2.0157,1.0079,2.7716,2.7716,2.7716h0.7559L124.7913,1031.2076z"/>
	<path id="path3058_00000147901950786713758690000007388255507934401959_" class="st0" d="M130.3346,1021.1289l-4.2835,10.3306
		h2.7717l0.7559-2.0156h4.7874l0.7559,2.0156h3.0236l-4.2835-10.3306H130.3346L130.3346,1021.1289z M132.0984,1023.3967
		l1.5118,3.5276h-2.7717L132.0984,1023.3967L132.0984,1023.3967z"/>
	<path id="path3060_00000124861155669308622820000015443893641312350897_" class="st0" d="M138.3976,1031.2076v-10.3307h3.2756
		l4.0315,6.5511v-6.5511h2.5197v10.3307h-3.0236l-4.2834-6.5511v6.5511H138.3976z"/>
	<path id="path3062_00000176044396836205216840000002118459763237715339_" class="st0" d="M87.5,1049.0974v-10.3306h8.315v2.2677
		h-5.7953v1.7639h5.5433v2.2677h-5.5433v1.7638h5.7953v2.2678L87.5,1049.0974z"/>
	<path id="path3064_00000034771279324141832690000014975596498401480064_" class="st0" d="M128.5708,1049.0974v-10.3306h8.315
		v2.2677h-5.7953v1.7639h5.5433v2.2677h-5.5433v1.7638h5.7953v2.2678L128.5708,1049.0974z"/>
	<path id="path3066_00000175285812757076580500000002479349477936203170_" class="st0" d="M96.5204,1048.8456l3.83-4.7875
		l-4.2835-5.2913h3.2756l2.5197,3.2755l2.5197-3.2755h3.0236l-4.0315,5.0393l4.0315,5.0394h-3.2756l-2.5197-3.2756l-2.2677,3.2756
		H96.5204L96.5204,1048.8456z"/>
	<path id="path3068_00000099628685671445797590000008690519299023674249_" class="st0" d="M107.6575,1039.0187v10.3307h2.5197
		v-3.2755h2.7716c2.2677,0,4.0315-1.2599,4.0315-3.5277c0-2.0156-1.2598-3.5276-3.7795-3.5276h-5.5433V1039.0187z
		 M110.4291,1041.2864h2.7717c0.7559,0,1.2598,0.5039,1.2598,1.2598c0,0.756-0.5039,1.2599-1.2598,1.2599h-2.7717V1041.2864
		L110.4291,1041.2864z"/>
	<path id="path3072_00000121278017000397115050000001356336234622387585_" class="st0" d="M118.2402,1039.0187v10.3307h2.5197
		v-3.5276h1.0079l3.0236,3.5276h3.0236l-3.2756-3.7795c1.2598,0,2.7717-1.2598,2.7717-3.0237c0-2.2677-1.7638-3.2755-3.5276-3.2755
		h-5.5433V1039.0187z M120.7598,1041.2864h3.0236c0.7559,0,1.2598,0.5039,1.2598,1.0079c0,0.7559-0.7559,1.0079-1.2598,1.0079
		h-3.0236V1041.2864z"/>
	<path id="path3074_00000163035518384732483670000006691653060759824279_" class="st0" d="M137.8937,1049.0974v-2.2677h5.0394
		c0.7559,0,1.0079-0.504,1.0079-0.7559c0-0.504-0.252-0.7559-1.0079-0.7559h-2.2677c-2.0157,0-3.0236-1.2599-3.0236-3.0237
		s1.0079-3.2756,4.0315-3.2756h5.0394l-1.0079,2.2678h-4.2834c-0.7559,0-1.0079,0.504-1.0079,0.7559
		c0,0.504,0.252,1.0079,1.0079,1.0079h2.5197c2.2677,0,3.2756,1.2599,3.2756,3.0237s-1.0079,3.2755-3.2756,3.2755h-6.0472V1049.0974
		z"/>
	<path id="path3076_00000093170333181864270900000006012218448340792763_" class="st0" d="M147.4685,1049.0974v-2.2677h5.0394
		c0.7559,0,1.0079-0.504,1.0079-0.7559c0-0.504-0.252-0.7559-1.0079-0.7559h-2.2677c-2.0158,0-3.0236-1.2599-3.0236-3.0237
		s1.0079-3.2756,4.0315-3.2756h5.0394l-1.0079,2.2678h-4.2835c-0.7559,0-1.0079,0.504-1.0079,0.7559
		c0,0.504,0.252,1.0079,1.0079,1.0079h2.5197c2.2677,0,3.2756,1.2599,3.2756,3.0237s-1.0079,3.2755-3.2756,3.2755h-6.0472V1049.0974
		z"/>
</g>
</svg>
